<?xml version="1.0" encoding="utf-8"?>
<!-- Generator: Adobe Illustrator 18.0.0, SVG Export Plug-In . SVG Version: 6.00 Build 0)  -->
<!DOCTYPE svg PUBLIC "-//W3C//DTD SVG 1.1//EN" "http://www.w3.org/Graphics/SVG/1.1/DTD/svg11.dtd">
<svg version="1.1" xmlns="http://www.w3.org/2000/svg" xmlns:xlink="http://www.w3.org/1999/xlink" x="0px" y="0px"
	 viewBox="0 0 240 74" enable-background="new 0 0 240 74" xml:space="preserve">
<g id="base_maps">
</g>
<g id="chrome">
</g>
<g id="content">
	<g id="branch_01" display="none">
	</g>
	<g id="branch_02">
	</g>
	<g id="branch_03" display="none">
	</g>
	<g id="branch_04" display="none">
	</g>
	<g id="branch_05" display="none">
	</g>
	<g id="branch_06" display="none">
	</g>
	<g>
		<g>
			<text transform="matrix(1 0 0 1 41.3921 24.9689)" fill="#231F20" font-family="'AvenirNext-Regular'" font-size="12">County</text>
		</g>
		<g>
			<text transform="matrix(1 0 0 1 41.3921 56.2789)" fill="#231F20" font-family="'AvenirNext-Regular'" font-size="12">State</text>
		</g>
		<g>
			<text transform="matrix(1 0 0 1 126.1282 24.9689)" fill="#231F20" font-family="'AvenirNext-Regular'" font-size="12">Metro Area (MSA)</text>
		</g>
		<g>
			<text transform="matrix(1 0 0 1 126.1282 56.2789)" fill="#231F20" font-family="'AvenirNext-Regular'" font-size="12">Metro Division</text>
		</g>
		<g>
			<defs>
				<rect id="SVGID_41_" x="91.5" y="37.7" width="30" height="30"/>
			</defs>
			<clipPath id="SVGID_2_">
				<use xlink:href="#SVGID_41_"  overflow="visible"/>
			</clipPath>
			<rect x="91.5" y="37.7" clip-path="url(#SVGID_2_)" fill="#E9E8E4" width="30" height="30"/>
			<path clip-path="url(#SVGID_2_)" fill="none" stroke="#FFFFFF" stroke-linejoin="round" stroke-miterlimit="10" d="M108.3,30.1
				v21.4l9.6,1.2l-9.6,7.9c0,0,0.1,2.8,2.4,3.9c2.3,1.1,24.6-0.4,24.6-0.4l2.4-26l-12.4-19.5L108.3,30.1z"/>
			<polygon clip-path="url(#SVGID_2_)" fill="#D5DDE6" stroke="#FFFFFF" stroke-linejoin="round" stroke-miterlimit="10" points="
				91.5,60.3 108.3,51.5 108.3,30.1 85.1,18.6 76,34.1 			"/>
			<g clip-path="url(#SVGID_2_)">
				<g>
					<polyline fill="none" stroke="#666666" stroke-linejoin="round" points="109.1,29.5 108.3,30.1 108.3,31.1 					"/>
					
						<line fill="none" stroke="#666666" stroke-linejoin="round" stroke-dasharray="2.1537,3.2306" x1="108.3" y1="34.3" x2="108.3" y2="48.9"/>
					<polyline fill="none" stroke="#666666" stroke-linejoin="round" points="108.3,50.5 108.3,51.5 109.3,51.6 					"/>
					
						<line fill="none" stroke="#666666" stroke-linejoin="round" stroke-dasharray="1.9166,2.8749" x1="112.1" y1="51.9" x2="115.5" y2="52.4"/>
					<polyline fill="none" stroke="#666666" stroke-linejoin="round" points="116.9,52.5 117.9,52.7 117.1,53.3 					"/>
					
						<line fill="none" stroke="#666666" stroke-linejoin="round" stroke-dasharray="1.6072,2.4108" x1="115.3" y1="54.8" x2="110" y2="59.2"/>
					<path fill="none" stroke="#666666" stroke-linejoin="round" d="M109.1,59.9l-0.8,0.6c0,0,0,0.4,0.2,1"/>
					<path fill="none" stroke="#666666" stroke-linejoin="round" stroke-dasharray="1.9612,2.9418" d="M110,64
						c0.2,0.2,0.5,0.3,0.7,0.4c1.8,0.8,16.3,0.1,22.2-0.2"/>
					<path fill="none" stroke="#666666" stroke-linejoin="round" d="M134.3,64.2c0.6,0,1-0.1,1-0.1l0.1-1"/>
					<polyline fill="none" stroke="#666666" stroke-linejoin="round" stroke-dasharray="1.9693,2.9539" points="135.7,60.2 
						137.7,38.1 126.6,20.7 					"/>
					<polyline fill="none" stroke="#666666" stroke-linejoin="round" points="125.8,19.4 125.3,18.6 124.4,19.1 					"/>
					
						<line fill="none" stroke="#666666" stroke-linejoin="round" stroke-dasharray="2.0569,3.0854" x1="121.9" y1="20.9" x2="110.4" y2="28.7"/>
				</g>
			</g>
			<g clip-path="url(#SVGID_2_)">
				<g>
					<polyline fill="none" stroke="#666666" stroke-linejoin="round" points="91,59.4 91.5,60.3 92.3,59.8 					"/>
					
						<line fill="none" stroke="#666666" stroke-linejoin="round" stroke-dasharray="1.8889,2.8334" x1="94.9" y1="58.5" x2="106.2" y2="52.6"/>
					<polyline fill="none" stroke="#666666" stroke-linejoin="round" points="107.4,51.9 108.3,51.5 108.3,50.5 					"/>
					
						<line fill="none" stroke="#666666" stroke-linejoin="round" stroke-dasharray="2.1537,3.2306" x1="108.3" y1="47.2" x2="108.3" y2="32.7"/>
					<polyline fill="none" stroke="#666666" stroke-linejoin="round" points="108.3,31.1 108.3,30.1 107.4,29.6 					"/>
					
						<line fill="none" stroke="#666666" stroke-linejoin="round" stroke-dasharray="2.0796,3.1194" x1="104.6" y1="28.3" x2="87.4" y2="19.7"/>
					<polyline fill="none" stroke="#666666" stroke-linejoin="round" points="86,19 85.1,18.6 84.6,19.4 					"/>
					
						<line fill="none" stroke="#666666" stroke-linejoin="round" stroke-dasharray="1.7784,2.6677" x1="83.2" y1="21.7" x2="77.2" y2="32.1"/>
					<polyline fill="none" stroke="#666666" stroke-linejoin="round" points="76.5,33.2 76,34.1 76.5,34.9 					"/>
					
						<line fill="none" stroke="#666666" stroke-linejoin="round" stroke-dasharray="2.0301,3.0452" x1="78" y1="37.6" x2="90.2" y2="58.1"/>
				</g>
			</g>
		</g>
		<g>
			<defs>
				<rect id="SVGID_43_" x="91.5" y="6.3" width="30" height="30"/>
			</defs>
			<clipPath id="SVGID_4_">
				<use xlink:href="#SVGID_43_"  overflow="visible"/>
			</clipPath>
			<rect x="91.5" y="6.3" clip-path="url(#SVGID_4_)" fill="#E9E8E4" width="30" height="30"/>
			<g clip-path="url(#SVGID_4_)">
				<polygon fill="#D5DDE6" points="87.2,31.2 108.3,20.2 108.3,-1.2 85.1,-12.7 76,2.8 				"/>
				<g opacity="0.1">
					<path fill="#333333" d="M87-6.2l16.3,8.1v15.3l-13.5,7.1l-8.3-21L87-6.2 M85.1-12.7L76,2.8l11.2,28.4l21.1-11.1V-1.2L85.1-12.7
						L85.1-12.7z"/>
				</g>
			</g>
			<g opacity="0.1" clip-path="url(#SVGID_4_)">
				<path fill="#333333" d="M123.8-5.7L132.6,8l-1.8,20c-3.8,0.2-9.4,0.5-13.7,0.5l4-3.3c1.5-1.3,2.2-3.3,1.6-5.3
					c-0.6-1.9-2.2-3.3-4.2-3.6l-5.2-0.6V1.4L123.8-5.7 M125.3-12.7l-17,11.5v21.4l9.6,1.2l-9.6,7.9c0,0,0.1,2.8,2.4,3.9
					c0.6,0.3,2.7,0.4,5.4,0.4c7.3,0,19.2-0.8,19.2-0.8l2.4-26L125.3-12.7L125.3-12.7z"/>
			</g>
			<path clip-path="url(#SVGID_4_)" fill="none" stroke="#FFFFFF" stroke-linejoin="round" stroke-miterlimit="10" d="M108.3-1.2
				v21.4l9.6,1.2l-9.6,7.9c0,0,0.1,2.8,2.4,3.9c2.3,1.1,24.6-0.4,24.6-0.4l2.4-26l-12.4-19.5L108.3-1.2z"/>
			<polygon clip-path="url(#SVGID_4_)" fill="none" stroke="#FFFFFF" stroke-linejoin="round" stroke-miterlimit="10" points="
				91.5,29 108.3,20.2 108.3,-1.2 85.1,-12.7 76,2.8 			"/>
			<g clip-path="url(#SVGID_4_)">
				<g>
					<polyline fill="none" stroke="#333333" stroke-linejoin="round" points="110,-2.3 108.3,-1.2 108.3,0.8 					"/>
					
						<line fill="none" stroke="#333333" stroke-linejoin="round" stroke-dasharray="9.6575,3.863" x1="108.3" y1="4.6" x2="108.3" y2="16.2"/>
					<polyline fill="none" stroke="#333333" stroke-linejoin="round" points="108.3,18.2 108.3,20.2 110.3,20.4 					"/>
					
						<line fill="none" stroke="#333333" stroke-linejoin="round" stroke-dasharray="3.1481,1.2592" x1="111.5" y1="20.6" x2="115.3" y2="21"/>
					<polyline fill="none" stroke="#333333" stroke-linejoin="round" points="115.9,21.1 117.9,21.3 116.4,22.6 					"/>
					
						<line fill="none" stroke="#333333" stroke-linejoin="round" stroke-dasharray="4.6926,1.877" x1="114.9" y1="23.8" x2="110.6" y2="27.4"/>
					<path fill="none" stroke="#333333" stroke-linejoin="round" d="M109.8,28l-1.5,1.3c0,0,0,0.9,0.5,1.9"/>
					<path fill="none" stroke="#333333" stroke-linejoin="round" stroke-dasharray="6.3642,2.5457" d="M110.5,33
						c0.1,0,0.1,0.1,0.2,0.1c0.8,0.4,3.7,0.4,7.4,0.4"/>
					<path fill="none" stroke="#333333" stroke-linejoin="round" stroke-dasharray="2.5457,2.5457,6.3642,2.5457" d="M119.3,33.5
						c4.4-0.1,9.5-0.4,12.7-0.5"/>
					<path fill="none" stroke="#333333" stroke-linejoin="round" d="M133.3,32.9c1.2-0.1,2-0.1,2-0.1l0.2-2"/>
					
						<line fill="none" stroke="#333333" stroke-linejoin="round" stroke-dasharray="11.3155,4.5262" x1="135.9" y1="26.3" x2="137.2" y2="12.8"/>
					<polyline fill="none" stroke="#333333" stroke-linejoin="round" stroke-dasharray="4.5262,4.5262,11.3155,4.5262" points="
						137.4,10.5 137.7,6.8 127.6,-9.2 					"/>
				</g>
			</g>
			<g clip-path="url(#SVGID_4_)">
				<g>
					<polyline fill="none" stroke="#333333" stroke-linejoin="round" points="90.4,27.2 91.5,29 93.2,28 					"/>
					
						<line fill="none" stroke="#333333" stroke-linejoin="round" stroke-dasharray="8.3334,3.3334" x1="96.2" y1="26.5" x2="105.1" y2="21.9"/>
					<polyline fill="none" stroke="#333333" stroke-linejoin="round" points="106.5,21.1 108.3,20.2 108.3,18.2 					"/>
					
						<line fill="none" stroke="#333333" stroke-linejoin="round" stroke-dasharray="9.6575,3.863" x1="108.3" y1="14.3" x2="108.3" y2="2.7"/>
					<polyline fill="none" stroke="#333333" stroke-linejoin="round" points="108.3,0.8 108.3,-1.2 106.5,-2.1 					"/>
					<polyline fill="none" stroke="#333333" stroke-linejoin="round" points="77,1.1 76,2.8 77,4.5 					"/>
					
						<line fill="none" stroke="#333333" stroke-linejoin="round" stroke-dasharray="6.6055,2.6422" x1="78.3" y1="6.8" x2="82.4" y2="13.6"/>
					
						<line fill="none" stroke="#333333" stroke-linejoin="round" stroke-dasharray="2.6422,2.6422,6.6055,2.6422" x1="83" y1="14.7" x2="89.8" y2="26.1"/>
				</g>
			</g>
		</g>
		<g>
			<defs>
				<rect id="SVGID_45_" x="6.7" y="6.3" width="30" height="30"/>
			</defs>
			<clipPath id="SVGID_6_">
				<use xlink:href="#SVGID_45_"  overflow="visible"/>
			</clipPath>
			<rect x="6.7" y="6.3" clip-path="url(#SVGID_6_)" fill="#E9E8E4" width="30" height="30"/>
			<path clip-path="url(#SVGID_6_)" fill="none" stroke="#FFFFFF" stroke-linejoin="round" stroke-miterlimit="10" d="M23.6-1.2
				v21.4l9.6,1.2l-9.6,7.9c0,0,0.1,2.8,2.4,3.9s24.6-0.4,24.6-0.4l2.4-26L40.5-12.7L23.6-1.2z"/>
			<polygon clip-path="url(#SVGID_6_)" fill="#D5DDE6" stroke="#FFFFFF" stroke-linejoin="round" stroke-miterlimit="10" points="
				6.7,29 23.6,20.2 23.6,-1.2 0.4,-12.7 -8.8,2.8 			"/>
		</g>
		<g>
			<defs>
				<rect id="SVGID_47_" x="6.7" y="37.7" width="30" height="30"/>
			</defs>
			<clipPath id="SVGID_8_">
				<use xlink:href="#SVGID_47_"  overflow="visible"/>
			</clipPath>
			<rect x="6.7" y="37.7" clip-path="url(#SVGID_8_)" fill="#E9E8E4" width="30" height="30"/>
			
				<polygon clip-path="url(#SVGID_8_)" fill="#D5DDE6" stroke="#FFDD00" stroke-width="5" stroke-miterlimit="10" stroke-opacity="0.2" points="
				2.4,62.5 23.6,51.5 23.6,30.1 0.4,18.6 -8.8,34.1 			"/>
			
				<path opacity="0.2" clip-path="url(#SVGID_8_)" fill="none" stroke="#FFDD00" stroke-width="5" stroke-linejoin="round" stroke-miterlimit="10" d="
				M23.6,30.1v21.4l9.6,1.2l-9.6,7.9c0,0,0.1,2.8,2.4,3.9s24.6-0.4,24.6-0.4l2.4-26L40.5,18.6L23.6,30.1z"/>
			<path clip-path="url(#SVGID_8_)" fill="none" stroke="#FFFFFF" stroke-linejoin="round" stroke-miterlimit="10" d="M23.6,30.1
				v21.4l9.6,1.2l-9.6,7.9c0,0,0.1,2.8,2.4,3.9s24.6-0.4,24.6-0.4l2.4-26L40.5,18.6L23.6,30.1z"/>
			<polygon clip-path="url(#SVGID_8_)" fill="none" stroke="#FFFFFF" stroke-linejoin="round" stroke-miterlimit="10" points="
				6.7,60.3 23.6,51.5 23.6,30.1 0.4,18.6 -8.8,34.1 			"/>
			<path clip-path="url(#SVGID_8_)" fill="none" stroke="#CCB100" stroke-linejoin="round" stroke-miterlimit="10" d="M23.6,30.1
				v21.4l9.6,1.2l-9.6,7.9c0,0,0.1,2.8,2.4,3.9s24.6-0.4,24.6-0.4l2.4-26L40.5,18.6L23.6,30.1z"/>
			<polygon clip-path="url(#SVGID_8_)" fill="none" stroke="#CCB100" stroke-linejoin="round" stroke-miterlimit="10" points="
				6.7,60.3 23.6,51.5 23.6,30.1 0.4,18.6 -8.8,34.1 			"/>
		</g>
	</g>
</g>
<g id="header">
</g>
</svg>
